<mxfile host="www.draw.io" modified="2019-12-12T18:22:59.905Z" agent="Mozilla/5.0 (Windows NT 10.0; Win64; x64) AppleWebKit/537.36 (KHTML, like Gecko) Chrome/77.0.3865.90 Safari/537.36" etag="DWNwY3otcF4uPMDFm76N" version="12.4.0" type="github" pages="1">
  <diagram id="XJbXGCVmFiAI94fBwPGo" name="Page-1">
    <mxGraphModel dx="3359" dy="927" grid="1" gridSize="10" guides="1" tooltips="1" connect="1" arrows="1" fold="1" page="1" pageScale="1" pageWidth="827" pageHeight="1169" math="0" shadow="0">
      <root>
        <mxCell id="0"/>
        <mxCell id="1" parent="0"/>
        <mxCell id="ZOk7aBvy6Ww0Tpq-KnbE-6" value="Да" style="rounded=0;orthogonalLoop=1;jettySize=auto;exitX=1;exitY=0.5;exitDx=0;exitDy=0;entryX=0;entryY=0.5;entryDx=0;entryDy=0;labelBorderColor=#000000;" parent="1" source="ZOk7aBvy6Ww0Tpq-KnbE-1" target="ZOk7aBvy6Ww0Tpq-KnbE-11" edge="1">
          <mxGeometry x="-0.3333" relative="1" as="geometry">
            <mxPoint x="480" y="120" as="targetPoint"/>
            <mxPoint as="offset"/>
          </mxGeometry>
        </mxCell>
        <mxCell id="ZOk7aBvy6Ww0Tpq-KnbE-1" value="Первый вход&lt;br&gt;в игру" style="rhombus;whiteSpace=wrap;html=1;" parent="1" vertex="1">
          <mxGeometry x="320" y="80" width="120" height="80" as="geometry"/>
        </mxCell>
        <mxCell id="ZOk7aBvy6Ww0Tpq-KnbE-2" value="Нет" style="endArrow=classic;exitX=0.5;exitY=1;exitDx=0;exitDy=0;labelBorderColor=#000000;spacing=2;entryX=0.5;entryY=0;entryDx=0;entryDy=0;" parent="1" source="ZOk7aBvy6Ww0Tpq-KnbE-1" edge="1" target="lbQ0SlpiaXaBPCAGhR3_-9">
          <mxGeometry x="-0.5" width="50" height="50" relative="1" as="geometry">
            <mxPoint x="320" y="230" as="sourcePoint"/>
            <mxPoint x="380" y="200" as="targetPoint"/>
            <mxPoint as="offset"/>
          </mxGeometry>
        </mxCell>
        <mxCell id="ZOk7aBvy6Ww0Tpq-KnbE-13" style="rounded=0;orthogonalLoop=1;jettySize=auto;html=1;comic=0;entryX=0.5;entryY=0;entryDx=0;entryDy=0;" parent="1" source="ZOk7aBvy6Ww0Tpq-KnbE-11" edge="1" target="lbQ0SlpiaXaBPCAGhR3_-5">
          <mxGeometry relative="1" as="geometry">
            <mxPoint x="560" y="200" as="targetPoint"/>
          </mxGeometry>
        </mxCell>
        <mxCell id="lbQ0SlpiaXaBPCAGhR3_-4" style="rounded=0;orthogonalLoop=1;jettySize=auto;html=1;entryX=0;entryY=0.75;entryDx=0;entryDy=0;endArrow=classic;endFill=1;strokeWidth=3;fillColor=#1ba1e2;strokeColor=#006EAF;" edge="1" parent="1" source="ZOk7aBvy6Ww0Tpq-KnbE-11" target="lbQ0SlpiaXaBPCAGhR3_-3">
          <mxGeometry relative="1" as="geometry"/>
        </mxCell>
        <mxCell id="ZOk7aBvy6Ww0Tpq-KnbE-11" value="Показать ролик&lt;br&gt;(gif + music)" style="rounded=0;whiteSpace=wrap;html=1;" parent="1" vertex="1">
          <mxGeometry x="500" y="90" width="120" height="60" as="geometry"/>
        </mxCell>
        <mxCell id="lbQ0SlpiaXaBPCAGhR3_-1" value="" style="shape=image;verticalLabelPosition=bottom;labelBackgroundColor=#ffffff;verticalAlign=top;aspect=fixed;imageAspect=0;image=http://websovhoz.ru/img/imgarticles/2019/vybor-personazha.jpg;imageBorder=#000000;strokeWidth=3;" vertex="1" parent="1">
          <mxGeometry x="678" y="200" width="232" height="160" as="geometry"/>
        </mxCell>
        <mxCell id="lbQ0SlpiaXaBPCAGhR3_-3" value="" style="shape=image;verticalLabelPosition=bottom;labelBackgroundColor=#ffffff;verticalAlign=top;aspect=fixed;imageAspect=0;image=http://websovhoz.ru/img/imgarticles/2019/anim.gif;" vertex="1" parent="1">
          <mxGeometry x="660" y="45" width="134" height="105" as="geometry"/>
        </mxCell>
        <mxCell id="lbQ0SlpiaXaBPCAGhR3_-7" style="rounded=0;orthogonalLoop=1;jettySize=auto;html=1;entryX=0;entryY=0.25;entryDx=0;entryDy=0;endArrow=classic;endFill=1;strokeWidth=3;fillColor=#1ba1e2;strokeColor=#006EAF;" edge="1" parent="1" source="lbQ0SlpiaXaBPCAGhR3_-5" target="lbQ0SlpiaXaBPCAGhR3_-1">
          <mxGeometry relative="1" as="geometry"/>
        </mxCell>
        <mxCell id="lbQ0SlpiaXaBPCAGhR3_-8" style="edgeStyle=none;rounded=0;orthogonalLoop=1;jettySize=auto;html=1;endArrow=classic;endFill=1;strokeWidth=1;entryX=1;entryY=0.5;entryDx=0;entryDy=0;" edge="1" parent="1" source="lbQ0SlpiaXaBPCAGhR3_-5" target="lbQ0SlpiaXaBPCAGhR3_-9">
          <mxGeometry relative="1" as="geometry">
            <mxPoint x="430" y="230" as="targetPoint"/>
          </mxGeometry>
        </mxCell>
        <mxCell id="lbQ0SlpiaXaBPCAGhR3_-5" value="Выберите своего&lt;br&gt;персонажа" style="rounded=0;whiteSpace=wrap;html=1;strokeWidth=1;" vertex="1" parent="1">
          <mxGeometry x="500" y="200" width="120" height="60" as="geometry"/>
        </mxCell>
        <mxCell id="lbQ0SlpiaXaBPCAGhR3_-11" style="edgeStyle=none;rounded=0;orthogonalLoop=1;jettySize=auto;html=1;endArrow=classic;endFill=1;strokeWidth=3;fillColor=#1ba1e2;strokeColor=#006EAF;" edge="1" parent="1" source="lbQ0SlpiaXaBPCAGhR3_-9" target="lbQ0SlpiaXaBPCAGhR3_-10">
          <mxGeometry relative="1" as="geometry">
            <Array as="points">
              <mxPoint x="210" y="280"/>
            </Array>
          </mxGeometry>
        </mxCell>
        <mxCell id="lbQ0SlpiaXaBPCAGhR3_-18" style="edgeStyle=none;rounded=0;orthogonalLoop=1;jettySize=auto;html=1;entryX=0.5;entryY=0;entryDx=0;entryDy=0;endArrow=classic;endFill=1;strokeWidth=1;" edge="1" parent="1" source="lbQ0SlpiaXaBPCAGhR3_-9" target="lbQ0SlpiaXaBPCAGhR3_-14">
          <mxGeometry relative="1" as="geometry"/>
        </mxCell>
        <mxCell id="lbQ0SlpiaXaBPCAGhR3_-9" value="Меню игры" style="rounded=0;whiteSpace=wrap;html=1;strokeWidth=1;" vertex="1" parent="1">
          <mxGeometry x="320" y="200" width="120" height="60" as="geometry"/>
        </mxCell>
        <mxCell id="lbQ0SlpiaXaBPCAGhR3_-10" value="" style="shape=image;verticalLabelPosition=bottom;labelBackgroundColor=#ffffff;verticalAlign=top;aspect=fixed;imageAspect=0;image=http://websovhoz.ru/img/imgarticles/2019/menyu-igry.jpg;" vertex="1" parent="1">
          <mxGeometry x="-228" y="167" width="270" height="186" as="geometry"/>
        </mxCell>
        <mxCell id="lbQ0SlpiaXaBPCAGhR3_-14" value="Кнопки в меню" style="swimlane;fontStyle=0;childLayout=stackLayout;horizontal=1;startSize=27;fillColor=none;horizontalStack=0;resizeParent=1;resizeParentMax=0;resizeLast=0;collapsible=1;marginBottom=0;strokeWidth=1;" vertex="1" parent="1">
          <mxGeometry x="300" y="310" width="160" height="209" as="geometry">
            <mxRectangle x="310" y="296" width="50" height="26" as="alternateBounds"/>
          </mxGeometry>
        </mxCell>
        <mxCell id="lbQ0SlpiaXaBPCAGhR3_-15" value="Играть&#xa;" style="text;strokeColor=#2D7600;fillColor=#60a917;align=left;verticalAlign=top;spacingLeft=4;spacingRight=4;overflow=hidden;rotatable=0;points=[[0,0.5],[1,0.5]];portConstraint=eastwest;fontColor=#ffffff;" vertex="1" parent="lbQ0SlpiaXaBPCAGhR3_-14">
          <mxGeometry y="27" width="160" height="26" as="geometry"/>
        </mxCell>
        <mxCell id="lbQ0SlpiaXaBPCAGhR3_-16" value="Кузница&#xa;" style="text;strokeColor=#2D7600;fillColor=#60a917;align=left;verticalAlign=top;spacingLeft=4;spacingRight=4;overflow=hidden;rotatable=0;points=[[0,0.5],[1,0.5]];portConstraint=eastwest;fontColor=#ffffff;" vertex="1" parent="lbQ0SlpiaXaBPCAGhR3_-14">
          <mxGeometry y="53" width="160" height="26" as="geometry"/>
        </mxCell>
        <mxCell id="lbQ0SlpiaXaBPCAGhR3_-17" value="Настройки&#xa;" style="text;strokeColor=#6F0000;fillColor=#a20025;align=left;verticalAlign=top;spacingLeft=4;spacingRight=4;overflow=hidden;rotatable=0;points=[[0,0.5],[1,0.5]];portConstraint=eastwest;fontColor=#ffffff;" vertex="1" parent="lbQ0SlpiaXaBPCAGhR3_-14">
          <mxGeometry y="79" width="160" height="26" as="geometry"/>
        </mxCell>
        <mxCell id="lbQ0SlpiaXaBPCAGhR3_-19" value="Начать новую компанию" style="text;strokeColor=#2D7600;fillColor=#60a917;align=left;verticalAlign=top;spacingLeft=4;spacingRight=4;overflow=hidden;rotatable=0;points=[[0,0.5],[1,0.5]];portConstraint=eastwest;fontColor=#ffffff;" vertex="1" parent="lbQ0SlpiaXaBPCAGhR3_-14">
          <mxGeometry y="105" width="160" height="26" as="geometry"/>
        </mxCell>
        <mxCell id="lbQ0SlpiaXaBPCAGhR3_-20" value="Выход&#xa;" style="text;strokeColor=#2D7600;fillColor=#60a917;align=left;verticalAlign=top;spacingLeft=4;spacingRight=4;overflow=hidden;rotatable=0;points=[[0,0.5],[1,0.5]];portConstraint=eastwest;fontColor=#ffffff;" vertex="1" parent="lbQ0SlpiaXaBPCAGhR3_-14">
          <mxGeometry y="131" width="160" height="26" as="geometry"/>
        </mxCell>
        <mxCell id="lbQ0SlpiaXaBPCAGhR3_-21" value="Связь&#xa;" style="text;strokeColor=#6F0000;fillColor=#a20025;align=left;verticalAlign=top;spacingLeft=4;spacingRight=4;overflow=hidden;rotatable=0;points=[[0,0.5],[1,0.5]];portConstraint=eastwest;fontColor=#ffffff;" vertex="1" parent="lbQ0SlpiaXaBPCAGhR3_-14">
          <mxGeometry y="157" width="160" height="26" as="geometry"/>
        </mxCell>
        <mxCell id="lbQ0SlpiaXaBPCAGhR3_-22" value="*Картинка персонажа*" style="text;strokeColor=#2D7600;fillColor=#60a917;align=left;verticalAlign=top;spacingLeft=4;spacingRight=4;overflow=hidden;rotatable=0;points=[[0,0.5],[1,0.5]];portConstraint=eastwest;fontColor=#ffffff;" vertex="1" parent="lbQ0SlpiaXaBPCAGhR3_-14">
          <mxGeometry y="183" width="160" height="26" as="geometry"/>
        </mxCell>
        <mxCell id="lbQ0SlpiaXaBPCAGhR3_-24" style="edgeStyle=orthogonalEdgeStyle;rounded=0;orthogonalLoop=1;jettySize=auto;html=1;entryX=0.5;entryY=1;entryDx=0;entryDy=0;endArrow=classic;endFill=1;strokeWidth=1;exitX=0;exitY=0.5;exitDx=0;exitDy=0;" edge="1" parent="1" source="lbQ0SlpiaXaBPCAGhR3_-19" target="lbQ0SlpiaXaBPCAGhR3_-26">
          <mxGeometry relative="1" as="geometry">
            <Array as="points">
              <mxPoint x="190" y="428"/>
            </Array>
          </mxGeometry>
        </mxCell>
        <mxCell id="lbQ0SlpiaXaBPCAGhR3_-25" value="" style="shape=image;verticalLabelPosition=bottom;labelBackgroundColor=#ffffff;verticalAlign=top;aspect=fixed;imageAspect=0;image=http://websovhoz.ru/img/imgarticles/2019/vybor-urovnya.jpg;" vertex="1" parent="1">
          <mxGeometry x="790" y="521.5" width="274" height="189" as="geometry"/>
        </mxCell>
        <mxCell id="lbQ0SlpiaXaBPCAGhR3_-27" value="Да" style="edgeStyle=orthogonalEdgeStyle;rounded=0;orthogonalLoop=1;jettySize=auto;entryX=0.5;entryY=0;entryDx=0;entryDy=0;endArrow=classic;endFill=1;strokeWidth=1;labelBorderColor=#000000;exitX=0.5;exitY=0;exitDx=0;exitDy=0;" edge="1" parent="1" source="lbQ0SlpiaXaBPCAGhR3_-26" target="ZOk7aBvy6Ww0Tpq-KnbE-1">
          <mxGeometry x="-0.8788" relative="1" as="geometry">
            <mxPoint as="offset"/>
          </mxGeometry>
        </mxCell>
        <mxCell id="lbQ0SlpiaXaBPCAGhR3_-28" value="Нет" style="edgeStyle=orthogonalEdgeStyle;rounded=0;orthogonalLoop=1;jettySize=auto;endArrow=classic;endFill=1;strokeWidth=1;labelBorderColor=#000000;exitX=1;exitY=0.5;exitDx=0;exitDy=0;" edge="1" parent="1" source="lbQ0SlpiaXaBPCAGhR3_-26" target="lbQ0SlpiaXaBPCAGhR3_-9">
          <mxGeometry x="0.668" y="-30" relative="1" as="geometry">
            <mxPoint x="320" y="220" as="targetPoint"/>
            <Array as="points">
              <mxPoint x="310" y="220"/>
              <mxPoint x="310" y="220"/>
            </Array>
            <mxPoint x="-30" y="-30" as="offset"/>
          </mxGeometry>
        </mxCell>
        <mxCell id="lbQ0SlpiaXaBPCAGhR3_-26" value="Пользователь&lt;br&gt;&amp;nbsp;уверен в &lt;br&gt;решении?" style="rhombus;whiteSpace=wrap;html=1;strokeColor=#000000;strokeWidth=1;fillColor=none;" vertex="1" parent="1">
          <mxGeometry x="120" y="180" width="140" height="80" as="geometry"/>
        </mxCell>
        <mxCell id="lbQ0SlpiaXaBPCAGhR3_-30" value="" style="shape=image;verticalLabelPosition=bottom;labelBackgroundColor=#ffffff;verticalAlign=top;aspect=fixed;imageAspect=0;image=http://websovhoz.ru/img/imgarticles/2019/Kuznitsa.jpg;" vertex="1" parent="1">
          <mxGeometry x="-390" y="454" width="276" height="190" as="geometry"/>
        </mxCell>
        <mxCell id="lbQ0SlpiaXaBPCAGhR3_-35" style="edgeStyle=none;rounded=0;orthogonalLoop=1;jettySize=auto;html=0;endArrow=classic;endFill=1;strokeWidth=1;entryX=0;entryY=0.5;entryDx=0;entryDy=0;" edge="1" parent="1" source="lbQ0SlpiaXaBPCAGhR3_-20" target="lbQ0SlpiaXaBPCAGhR3_-37">
          <mxGeometry relative="1" as="geometry">
            <mxPoint x="769.9999999999995" y="454" as="targetPoint"/>
          </mxGeometry>
        </mxCell>
        <mxCell id="lbQ0SlpiaXaBPCAGhR3_-94" style="edgeStyle=none;rounded=0;orthogonalLoop=1;jettySize=auto;html=0;exitX=1;exitY=0.5;exitDx=0;exitDy=0;entryX=0;entryY=0.5;entryDx=0;entryDy=0;startArrow=none;startFill=0;endArrow=classic;endFill=1;strokeColor=#000000;strokeWidth=1;" edge="1" parent="1" source="lbQ0SlpiaXaBPCAGhR3_-36" target="lbQ0SlpiaXaBPCAGhR3_-93">
          <mxGeometry relative="1" as="geometry"/>
        </mxCell>
        <mxCell id="lbQ0SlpiaXaBPCAGhR3_-36" value="Выход из игры" style="rounded=0;whiteSpace=wrap;html=1;strokeColor=#000000;strokeWidth=1;fillColor=#ffffff;" vertex="1" parent="1">
          <mxGeometry x="790" y="424" width="120" height="60" as="geometry"/>
        </mxCell>
        <mxCell id="lbQ0SlpiaXaBPCAGhR3_-38" value="Да" style="edgeStyle=none;rounded=0;orthogonalLoop=1;jettySize=auto;html=0;exitX=1;exitY=0.5;exitDx=0;exitDy=0;entryX=0;entryY=0.5;entryDx=0;entryDy=0;endArrow=classic;endFill=1;strokeWidth=1;labelBorderColor=#000000;" edge="1" parent="1" source="lbQ0SlpiaXaBPCAGhR3_-37" target="lbQ0SlpiaXaBPCAGhR3_-36">
          <mxGeometry x="-0.4286" relative="1" as="geometry">
            <mxPoint as="offset"/>
          </mxGeometry>
        </mxCell>
        <mxCell id="lbQ0SlpiaXaBPCAGhR3_-39" value="Нет" style="edgeStyle=none;rounded=0;orthogonalLoop=1;jettySize=auto;html=0;entryX=1;entryY=0.75;entryDx=0;entryDy=0;endArrow=classic;endFill=1;strokeWidth=1;labelBorderColor=#000000;exitX=0.5;exitY=0;exitDx=0;exitDy=0;" edge="1" parent="1" source="lbQ0SlpiaXaBPCAGhR3_-37" target="lbQ0SlpiaXaBPCAGhR3_-9">
          <mxGeometry x="-0.7317" y="-2" relative="1" as="geometry">
            <mxPoint as="offset"/>
          </mxGeometry>
        </mxCell>
        <mxCell id="lbQ0SlpiaXaBPCAGhR3_-37" value="&quot;Вы уверены, &lt;br&gt;что хотите выйти?&quot;" style="rhombus;whiteSpace=wrap;html=1;strokeColor=#000000;strokeWidth=1;fillColor=#ffffff;" vertex="1" parent="1">
          <mxGeometry x="550" y="414" width="170" height="80" as="geometry"/>
        </mxCell>
        <mxCell id="lbQ0SlpiaXaBPCAGhR3_-42" style="edgeStyle=orthogonalEdgeStyle;rounded=0;orthogonalLoop=1;jettySize=auto;html=0;endArrow=classic;endFill=1;strokeColor=#000000;strokeWidth=1;exitX=1;exitY=0.5;exitDx=0;exitDy=0;startArrow=none;startFill=0;entryX=0.5;entryY=0;entryDx=0;entryDy=0;" edge="1" parent="1" source="lbQ0SlpiaXaBPCAGhR3_-15" target="lbQ0SlpiaXaBPCAGhR3_-43">
          <mxGeometry relative="1" as="geometry">
            <mxPoint x="520" y="600" as="targetPoint"/>
          </mxGeometry>
        </mxCell>
        <mxCell id="lbQ0SlpiaXaBPCAGhR3_-44" style="rounded=0;orthogonalLoop=1;jettySize=auto;html=0;entryX=0;entryY=0.5;entryDx=0;entryDy=0;startArrow=none;startFill=0;endArrow=classic;endFill=1;strokeColor=#006EAF;strokeWidth=3;fillColor=#1ba1e2;" edge="1" parent="1" source="lbQ0SlpiaXaBPCAGhR3_-43" target="lbQ0SlpiaXaBPCAGhR3_-25">
          <mxGeometry relative="1" as="geometry"/>
        </mxCell>
        <mxCell id="lbQ0SlpiaXaBPCAGhR3_-46" value="В бой" style="edgeStyle=none;rounded=0;orthogonalLoop=1;jettySize=auto;html=0;entryX=0.5;entryY=0;entryDx=0;entryDy=0;startArrow=none;startFill=0;endArrow=classic;endFill=1;strokeColor=#000000;strokeWidth=1;labelBorderColor=#000000;exitX=0.5;exitY=1;exitDx=0;exitDy=0;" edge="1" parent="1" source="lbQ0SlpiaXaBPCAGhR3_-95" target="lbQ0SlpiaXaBPCAGhR3_-45">
          <mxGeometry x="-0.6364" relative="1" as="geometry">
            <mxPoint as="offset"/>
          </mxGeometry>
        </mxCell>
        <mxCell id="lbQ0SlpiaXaBPCAGhR3_-96" style="edgeStyle=none;rounded=0;orthogonalLoop=1;jettySize=auto;html=0;exitX=0.5;exitY=1;exitDx=0;exitDy=0;entryX=0.5;entryY=0;entryDx=0;entryDy=0;startArrow=none;startFill=0;endArrow=classic;endFill=1;strokeColor=#000000;strokeWidth=1;" edge="1" parent="1" source="lbQ0SlpiaXaBPCAGhR3_-43" target="lbQ0SlpiaXaBPCAGhR3_-95">
          <mxGeometry relative="1" as="geometry"/>
        </mxCell>
        <mxCell id="lbQ0SlpiaXaBPCAGhR3_-43" value="Выбор уровня" style="rounded=0;whiteSpace=wrap;html=1;strokeColor=#000000;strokeWidth=1;fillColor=#ffffff;" vertex="1" parent="1">
          <mxGeometry x="460" y="556" width="120" height="60" as="geometry"/>
        </mxCell>
        <mxCell id="lbQ0SlpiaXaBPCAGhR3_-47" value="Поражение" style="edgeStyle=none;rounded=0;orthogonalLoop=1;jettySize=auto;html=0;startArrow=none;startFill=0;endArrow=classic;endFill=1;strokeColor=#000000;strokeWidth=1;exitX=0.75;exitY=1;exitDx=0;exitDy=0;labelBorderColor=#000000;entryX=0.5;entryY=0;entryDx=0;entryDy=0;" edge="1" parent="1" source="lbQ0SlpiaXaBPCAGhR3_-45" target="lbQ0SlpiaXaBPCAGhR3_-52">
          <mxGeometry x="-0.7516" y="4" relative="1" as="geometry">
            <mxPoint x="600" y="990" as="targetPoint"/>
            <mxPoint as="offset"/>
          </mxGeometry>
        </mxCell>
        <mxCell id="lbQ0SlpiaXaBPCAGhR3_-48" value="Победа" style="edgeStyle=none;rounded=0;orthogonalLoop=1;jettySize=auto;html=0;startArrow=none;startFill=0;endArrow=classic;endFill=1;strokeColor=#000000;strokeWidth=1;exitX=0.25;exitY=1;exitDx=0;exitDy=0;labelBorderColor=#000000;entryX=0.5;entryY=0;entryDx=0;entryDy=0;" edge="1" parent="1" source="lbQ0SlpiaXaBPCAGhR3_-45" target="lbQ0SlpiaXaBPCAGhR3_-54">
          <mxGeometry x="-0.7516" y="-4" relative="1" as="geometry">
            <mxPoint x="400" y="960" as="targetPoint"/>
            <mxPoint as="offset"/>
          </mxGeometry>
        </mxCell>
        <mxCell id="lbQ0SlpiaXaBPCAGhR3_-50" style="edgeStyle=none;rounded=0;orthogonalLoop=1;jettySize=auto;html=0;entryX=0;entryY=0.25;entryDx=0;entryDy=0;startArrow=none;startFill=0;endArrow=classic;endFill=1;strokeColor=#006EAF;strokeWidth=3;fillColor=#1ba1e2;" edge="1" parent="1" source="lbQ0SlpiaXaBPCAGhR3_-45" target="lbQ0SlpiaXaBPCAGhR3_-49">
          <mxGeometry relative="1" as="geometry"/>
        </mxCell>
        <mxCell id="lbQ0SlpiaXaBPCAGhR3_-68" style="rounded=0;orthogonalLoop=1;jettySize=auto;html=0;entryX=0;entryY=0.5;entryDx=0;entryDy=0;startArrow=none;startFill=0;endArrow=classic;endFill=1;strokeColor=#006EAF;strokeWidth=3;exitX=1;exitY=0.5;exitDx=0;exitDy=0;fillColor=#1ba1e2;" edge="1" parent="1" source="lbQ0SlpiaXaBPCAGhR3_-45" target="lbQ0SlpiaXaBPCAGhR3_-67">
          <mxGeometry relative="1" as="geometry"/>
        </mxCell>
        <mxCell id="lbQ0SlpiaXaBPCAGhR3_-97" style="edgeStyle=none;rounded=0;orthogonalLoop=1;jettySize=auto;html=0;startArrow=classic;startFill=1;endArrow=classic;endFill=1;strokeColor=#FF0000;strokeWidth=5;dashed=1;exitX=0;exitY=0.5;exitDx=0;exitDy=0;fillColor=#f0a30a;entryX=0.75;entryY=0;entryDx=0;entryDy=0;" edge="1" parent="1" source="lbQ0SlpiaXaBPCAGhR3_-45" target="lbQ0SlpiaXaBPCAGhR3_-135">
          <mxGeometry relative="1" as="geometry">
            <mxPoint x="-190" y="1070" as="targetPoint"/>
          </mxGeometry>
        </mxCell>
        <mxCell id="lbQ0SlpiaXaBPCAGhR3_-45" value="Игровой уровень&lt;br&gt;(самое мясо)" style="rounded=0;whiteSpace=wrap;html=1;strokeColor=#000000;strokeWidth=1;fillColor=#ffffff;" vertex="1" parent="1">
          <mxGeometry x="460" y="770" width="120" height="60" as="geometry"/>
        </mxCell>
        <mxCell id="lbQ0SlpiaXaBPCAGhR3_-49" value="" style="shape=image;verticalLabelPosition=bottom;labelBackgroundColor=#ffffff;verticalAlign=top;aspect=fixed;imageAspect=0;image=http://websovhoz.ru/img/imgarticles/2019/geimplei-igry.jpg;" vertex="1" parent="1">
          <mxGeometry x="798" y="748" width="280" height="193" as="geometry"/>
        </mxCell>
        <mxCell id="lbQ0SlpiaXaBPCAGhR3_-53" value="Да" style="edgeStyle=orthogonalEdgeStyle;rounded=0;orthogonalLoop=1;jettySize=auto;html=0;entryX=0.75;entryY=0;entryDx=0;entryDy=0;startArrow=none;startFill=0;endArrow=classic;endFill=1;strokeColor=#000000;strokeWidth=1;exitX=1;exitY=0;exitDx=0;exitDy=0;labelBorderColor=#000000;" edge="1" parent="1" source="lbQ0SlpiaXaBPCAGhR3_-52" target="lbQ0SlpiaXaBPCAGhR3_-45">
          <mxGeometry x="-0.8545" relative="1" as="geometry">
            <Array as="points">
              <mxPoint x="643" y="750"/>
              <mxPoint x="550" y="750"/>
            </Array>
            <mxPoint as="offset"/>
          </mxGeometry>
        </mxCell>
        <mxCell id="lbQ0SlpiaXaBPCAGhR3_-64" value="Нет" style="edgeStyle=orthogonalEdgeStyle;rounded=0;orthogonalLoop=1;jettySize=auto;html=0;startArrow=none;startFill=0;endArrow=classic;endFill=1;strokeColor=#000000;strokeWidth=1;labelBorderColor=#000000;" edge="1" parent="1" source="lbQ0SlpiaXaBPCAGhR3_-52">
          <mxGeometry x="-0.9235" relative="1" as="geometry">
            <mxPoint x="260" y="1082" as="targetPoint"/>
            <Array as="points">
              <mxPoint x="595" y="1150"/>
              <mxPoint x="260" y="1150"/>
            </Array>
            <mxPoint as="offset"/>
          </mxGeometry>
        </mxCell>
        <mxCell id="lbQ0SlpiaXaBPCAGhR3_-52" value="&lt;span style=&quot;white-space: normal&quot;&gt;&quot;Ты ничего не получил.&lt;br&gt;&amp;nbsp;Может стоит попробовать &lt;br&gt;ещё раз?&quot;&lt;/span&gt;" style="rhombus;whiteSpace=wrap;html=1;strokeColor=#000000;strokeWidth=1;fillColor=#ffffff;" vertex="1" parent="1">
          <mxGeometry x="500" y="960" width="190" height="122" as="geometry"/>
        </mxCell>
        <mxCell id="lbQ0SlpiaXaBPCAGhR3_-56" style="edgeStyle=orthogonalEdgeStyle;rounded=0;orthogonalLoop=1;jettySize=auto;html=0;entryX=0.5;entryY=0;entryDx=0;entryDy=0;startArrow=none;startFill=0;endArrow=classic;endFill=1;strokeColor=#000000;strokeWidth=1;" edge="1" parent="1" source="lbQ0SlpiaXaBPCAGhR3_-54" target="lbQ0SlpiaXaBPCAGhR3_-55">
          <mxGeometry relative="1" as="geometry"/>
        </mxCell>
        <mxCell id="lbQ0SlpiaXaBPCAGhR3_-54" value="&quot;Поздравляю! Тебе удалось победить!&quot;" style="rounded=1;whiteSpace=wrap;html=1;strokeColor=#000000;strokeWidth=1;fillColor=#ffffff;" vertex="1" parent="1">
          <mxGeometry x="330" y="961" width="120" height="60" as="geometry"/>
        </mxCell>
        <mxCell id="lbQ0SlpiaXaBPCAGhR3_-57" value="Продолжить" style="edgeStyle=orthogonalEdgeStyle;rounded=0;orthogonalLoop=1;jettySize=auto;html=0;entryX=0.25;entryY=0;entryDx=0;entryDy=0;startArrow=none;startFill=0;endArrow=classic;endFill=1;strokeColor=#000000;strokeWidth=1;exitX=0;exitY=0.5;exitDx=0;exitDy=0;labelBorderColor=#000000;" edge="1" parent="1" source="lbQ0SlpiaXaBPCAGhR3_-55" target="lbQ0SlpiaXaBPCAGhR3_-43">
          <mxGeometry x="-0.8283" relative="1" as="geometry">
            <mxPoint as="offset"/>
          </mxGeometry>
        </mxCell>
        <mxCell id="lbQ0SlpiaXaBPCAGhR3_-59" value="В меню" style="edgeStyle=orthogonalEdgeStyle;rounded=0;orthogonalLoop=1;jettySize=auto;html=0;entryX=0;entryY=0.75;entryDx=0;entryDy=0;startArrow=none;startFill=0;endArrow=classic;endFill=1;strokeColor=#000000;strokeWidth=1;labelBorderColor=#000000;" edge="1" parent="1" source="lbQ0SlpiaXaBPCAGhR3_-55" target="lbQ0SlpiaXaBPCAGhR3_-9">
          <mxGeometry x="-0.8552" y="-22" relative="1" as="geometry">
            <Array as="points">
              <mxPoint x="260" y="1082"/>
              <mxPoint x="260" y="245"/>
            </Array>
            <mxPoint x="-22" y="-22" as="offset"/>
          </mxGeometry>
        </mxCell>
        <mxCell id="lbQ0SlpiaXaBPCAGhR3_-61" value="Рестарт" style="edgeStyle=orthogonalEdgeStyle;rounded=0;orthogonalLoop=1;jettySize=auto;html=0;exitX=1;exitY=0.5;exitDx=0;exitDy=0;entryX=0.25;entryY=0;entryDx=0;entryDy=0;startArrow=none;startFill=0;endArrow=classic;endFill=1;strokeColor=#000000;strokeWidth=1;labelBorderColor=#000000;" edge="1" parent="1" source="lbQ0SlpiaXaBPCAGhR3_-55" target="lbQ0SlpiaXaBPCAGhR3_-45">
          <mxGeometry x="-0.726" relative="1" as="geometry">
            <mxPoint as="offset"/>
          </mxGeometry>
        </mxCell>
        <mxCell id="lbQ0SlpiaXaBPCAGhR3_-63" style="rounded=0;orthogonalLoop=1;jettySize=auto;html=0;entryX=0.5;entryY=0;entryDx=0;entryDy=0;startArrow=none;startFill=0;endArrow=classic;endFill=1;strokeColor=#006EAF;strokeWidth=3;fillColor=#1ba1e2;" edge="1" parent="1" source="lbQ0SlpiaXaBPCAGhR3_-55" target="lbQ0SlpiaXaBPCAGhR3_-62">
          <mxGeometry relative="1" as="geometry"/>
        </mxCell>
        <mxCell id="lbQ0SlpiaXaBPCAGhR3_-55" value="Выдача наград, опыта&lt;br&gt;(это параллелограмм)" style="rounded=0;whiteSpace=wrap;html=1;strokeColor=#000000;strokeWidth=1;fillColor=#ffffff;" vertex="1" parent="1">
          <mxGeometry x="330" y="1052" width="130" height="60" as="geometry"/>
        </mxCell>
        <mxCell id="lbQ0SlpiaXaBPCAGhR3_-62" value="" style="shape=image;verticalLabelPosition=bottom;labelBackgroundColor=#ffffff;verticalAlign=top;aspect=fixed;imageAspect=0;image=http://websovhoz.ru/img/imgarticles/2019/konets-igry.jpg;" vertex="1" parent="1">
          <mxGeometry x="170" y="1190" width="520" height="358" as="geometry"/>
        </mxCell>
        <mxCell id="lbQ0SlpiaXaBPCAGhR3_-67" value="" style="shape=image;verticalLabelPosition=bottom;labelBackgroundColor=#ffffff;verticalAlign=top;aspect=fixed;imageAspect=0;image=http://websovhoz.ru/img/imgarticles/2019/menyu-geroya.jpg;" vertex="1" parent="1">
          <mxGeometry x="800" y="970" width="278" height="191" as="geometry"/>
        </mxCell>
        <mxCell id="lbQ0SlpiaXaBPCAGhR3_-69" style="rounded=0;orthogonalLoop=1;jettySize=auto;html=0;startArrow=none;startFill=0;endArrow=classic;endFill=1;strokeColor=#000000;strokeWidth=1;entryX=1;entryY=0.25;entryDx=0;entryDy=0;" edge="1" parent="1" source="lbQ0SlpiaXaBPCAGhR3_-22" target="lbQ0SlpiaXaBPCAGhR3_-71">
          <mxGeometry relative="1" as="geometry">
            <mxPoint x="100" y="520" as="targetPoint"/>
          </mxGeometry>
        </mxCell>
        <mxCell id="lbQ0SlpiaXaBPCAGhR3_-70" style="edgeStyle=orthogonalEdgeStyle;rounded=0;orthogonalLoop=1;jettySize=auto;html=0;startArrow=none;startFill=0;endArrow=classic;endFill=1;strokeColor=#000000;strokeWidth=1;entryX=0.75;entryY=0;entryDx=0;entryDy=0;" edge="1" parent="1" source="lbQ0SlpiaXaBPCAGhR3_-16" target="lbQ0SlpiaXaBPCAGhR3_-71">
          <mxGeometry relative="1" as="geometry">
            <mxPoint x="100" y="490" as="targetPoint"/>
            <Array as="points">
              <mxPoint x="60" y="377"/>
            </Array>
          </mxGeometry>
        </mxCell>
        <mxCell id="lbQ0SlpiaXaBPCAGhR3_-72" style="edgeStyle=none;rounded=0;orthogonalLoop=1;jettySize=auto;html=0;entryX=1;entryY=0.5;entryDx=0;entryDy=0;startArrow=none;startFill=0;endArrow=classic;endFill=1;strokeColor=#006EAF;strokeWidth=3;fillColor=#1ba1e2;" edge="1" parent="1" source="lbQ0SlpiaXaBPCAGhR3_-71" target="lbQ0SlpiaXaBPCAGhR3_-30">
          <mxGeometry relative="1" as="geometry"/>
        </mxCell>
        <mxCell id="lbQ0SlpiaXaBPCAGhR3_-73" style="edgeStyle=none;rounded=0;orthogonalLoop=1;jettySize=auto;html=0;startArrow=none;startFill=0;endArrow=classic;endFill=1;strokeColor=#000000;strokeWidth=1;entryX=0.5;entryY=0;entryDx=0;entryDy=0;" edge="1" parent="1" source="lbQ0SlpiaXaBPCAGhR3_-71" target="lbQ0SlpiaXaBPCAGhR3_-74">
          <mxGeometry relative="1" as="geometry">
            <mxPoint x="30" y="609.9999999999998" as="targetPoint"/>
          </mxGeometry>
        </mxCell>
        <mxCell id="lbQ0SlpiaXaBPCAGhR3_-71" value="Кузница" style="rounded=0;whiteSpace=wrap;html=1;strokeColor=#000000;strokeWidth=1;fillColor=#ffffff;" vertex="1" parent="1">
          <mxGeometry x="-30" y="491" width="120" height="60" as="geometry"/>
        </mxCell>
        <mxCell id="lbQ0SlpiaXaBPCAGhR3_-74" value="Кнопки в меню" style="swimlane;fontStyle=0;childLayout=stackLayout;horizontal=1;startSize=27;horizontalStack=0;resizeParent=1;resizeParentMax=0;resizeLast=0;collapsible=1;marginBottom=0;strokeWidth=1;" vertex="1" parent="1">
          <mxGeometry x="-50" y="660" width="160" height="157" as="geometry">
            <mxRectangle x="310" y="296" width="50" height="26" as="alternateBounds"/>
          </mxGeometry>
        </mxCell>
        <mxCell id="lbQ0SlpiaXaBPCAGhR3_-75" value="Меч" style="text;align=left;verticalAlign=top;spacingLeft=4;spacingRight=4;overflow=hidden;rotatable=0;points=[[0,0.5],[1,0.5]];portConstraint=eastwest;strokeColor=#000000;" vertex="1" parent="lbQ0SlpiaXaBPCAGhR3_-74">
          <mxGeometry y="27" width="160" height="26" as="geometry"/>
        </mxCell>
        <mxCell id="lbQ0SlpiaXaBPCAGhR3_-76" value="Пояс" style="text;align=left;verticalAlign=top;spacingLeft=4;spacingRight=4;overflow=hidden;rotatable=0;points=[[0,0.5],[1,0.5]];portConstraint=eastwest;strokeColor=#000000;" vertex="1" parent="lbQ0SlpiaXaBPCAGhR3_-74">
          <mxGeometry y="53" width="160" height="26" as="geometry"/>
        </mxCell>
        <mxCell id="lbQ0SlpiaXaBPCAGhR3_-77" value="Кольцо" style="text;align=left;verticalAlign=top;spacingLeft=4;spacingRight=4;overflow=hidden;rotatable=0;points=[[0,0.5],[1,0.5]];portConstraint=eastwest;strokeColor=#000000;" vertex="1" parent="lbQ0SlpiaXaBPCAGhR3_-74">
          <mxGeometry y="79" width="160" height="26" as="geometry"/>
        </mxCell>
        <mxCell id="lbQ0SlpiaXaBPCAGhR3_-78" value="Ожерелье" style="text;align=left;verticalAlign=top;spacingLeft=4;spacingRight=4;overflow=hidden;rotatable=0;points=[[0,0.5],[1,0.5]];portConstraint=eastwest;strokeColor=#000000;" vertex="1" parent="lbQ0SlpiaXaBPCAGhR3_-74">
          <mxGeometry y="105" width="160" height="26" as="geometry"/>
        </mxCell>
        <mxCell id="lbQ0SlpiaXaBPCAGhR3_-79" value="Браслет" style="text;align=left;verticalAlign=top;spacingLeft=4;spacingRight=4;overflow=hidden;rotatable=0;points=[[0,0.5],[1,0.5]];portConstraint=eastwest;strokeColor=#000000;" vertex="1" parent="lbQ0SlpiaXaBPCAGhR3_-74">
          <mxGeometry y="131" width="160" height="26" as="geometry"/>
        </mxCell>
        <mxCell id="lbQ0SlpiaXaBPCAGhR3_-92" style="edgeStyle=none;rounded=0;orthogonalLoop=1;jettySize=auto;html=0;exitX=0.5;exitY=1;exitDx=0;exitDy=0;entryX=0.5;entryY=0;entryDx=0;entryDy=0;startArrow=none;startFill=0;endArrow=classic;endFill=1;strokeColor=#000000;strokeWidth=1;" edge="1" parent="1" source="lbQ0SlpiaXaBPCAGhR3_-83" target="lbQ0SlpiaXaBPCAGhR3_-91">
          <mxGeometry relative="1" as="geometry"/>
        </mxCell>
        <mxCell id="lbQ0SlpiaXaBPCAGhR3_-83" value="Создать (Улучшить)" style="rounded=0;whiteSpace=wrap;html=1;strokeColor=#000000;strokeWidth=1;fillColor=#ffffff;" vertex="1" parent="1">
          <mxGeometry x="-270" y="708.5" width="120" height="60" as="geometry"/>
        </mxCell>
        <mxCell id="lbQ0SlpiaXaBPCAGhR3_-84" style="edgeStyle=none;rounded=0;orthogonalLoop=1;jettySize=auto;html=0;entryX=1;entryY=0.5;entryDx=0;entryDy=0;startArrow=none;startFill=0;endArrow=classic;endFill=1;strokeColor=#000000;strokeWidth=1;exitX=0;exitY=0.5;exitDx=0;exitDy=0;" edge="1" parent="1" source="lbQ0SlpiaXaBPCAGhR3_-75" target="lbQ0SlpiaXaBPCAGhR3_-83">
          <mxGeometry relative="1" as="geometry"/>
        </mxCell>
        <mxCell id="lbQ0SlpiaXaBPCAGhR3_-85" style="edgeStyle=none;rounded=0;orthogonalLoop=1;jettySize=auto;html=0;exitX=0;exitY=0.5;exitDx=0;exitDy=0;entryX=1;entryY=0.5;entryDx=0;entryDy=0;startArrow=none;startFill=0;endArrow=classic;endFill=1;strokeColor=#000000;strokeWidth=1;" edge="1" parent="1" source="lbQ0SlpiaXaBPCAGhR3_-76" target="lbQ0SlpiaXaBPCAGhR3_-83">
          <mxGeometry relative="1" as="geometry"/>
        </mxCell>
        <mxCell id="lbQ0SlpiaXaBPCAGhR3_-86" style="edgeStyle=none;rounded=0;orthogonalLoop=1;jettySize=auto;html=0;exitX=0;exitY=0.5;exitDx=0;exitDy=0;startArrow=none;startFill=0;endArrow=classic;endFill=1;strokeColor=#000000;strokeWidth=1;entryX=1;entryY=0.5;entryDx=0;entryDy=0;" edge="1" parent="1" source="lbQ0SlpiaXaBPCAGhR3_-77" target="lbQ0SlpiaXaBPCAGhR3_-83">
          <mxGeometry relative="1" as="geometry">
            <mxPoint x="-210" y="739.9999999999998" as="targetPoint"/>
          </mxGeometry>
        </mxCell>
        <mxCell id="lbQ0SlpiaXaBPCAGhR3_-87" style="edgeStyle=none;rounded=0;orthogonalLoop=1;jettySize=auto;html=0;exitX=0;exitY=0.5;exitDx=0;exitDy=0;startArrow=none;startFill=0;endArrow=classic;endFill=1;strokeColor=#000000;strokeWidth=1;entryX=1;entryY=0.5;entryDx=0;entryDy=0;" edge="1" parent="1" source="lbQ0SlpiaXaBPCAGhR3_-78" target="lbQ0SlpiaXaBPCAGhR3_-83">
          <mxGeometry relative="1" as="geometry">
            <mxPoint x="-210" y="739.9999999999998" as="targetPoint"/>
          </mxGeometry>
        </mxCell>
        <mxCell id="lbQ0SlpiaXaBPCAGhR3_-88" style="edgeStyle=none;rounded=0;orthogonalLoop=1;jettySize=auto;html=0;exitX=0;exitY=0.5;exitDx=0;exitDy=0;startArrow=none;startFill=0;endArrow=classic;endFill=1;strokeColor=#000000;strokeWidth=1;entryX=1;entryY=0.5;entryDx=0;entryDy=0;" edge="1" parent="1" source="lbQ0SlpiaXaBPCAGhR3_-79" target="lbQ0SlpiaXaBPCAGhR3_-83">
          <mxGeometry relative="1" as="geometry">
            <mxPoint x="-210" y="739.9999999999998" as="targetPoint"/>
          </mxGeometry>
        </mxCell>
        <mxCell id="lbQ0SlpiaXaBPCAGhR3_-91" value="-ресуры&lt;br&gt;+улучшения&lt;br&gt;*изменение цены и &lt;br&gt;характеристик" style="shape=parallelogram;perimeter=parallelogramPerimeter;whiteSpace=wrap;html=1;strokeColor=#000000;strokeWidth=1;fillColor=#ffffff;" vertex="1" parent="1">
          <mxGeometry x="-295" y="800" width="170" height="60" as="geometry"/>
        </mxCell>
        <mxCell id="lbQ0SlpiaXaBPCAGhR3_-93" value="&lt;span style=&quot;white-space: normal&quot;&gt;System.exit(0);&lt;/span&gt;" style="shape=parallelogram;perimeter=parallelogramPerimeter;whiteSpace=wrap;html=1;strokeColor=#000000;strokeWidth=1;fillColor=#ffffff;" vertex="1" parent="1">
          <mxGeometry x="958" y="424" width="120" height="60" as="geometry"/>
        </mxCell>
        <mxCell id="lbQ0SlpiaXaBPCAGhR3_-95" value="*Награда зависит &lt;br&gt;от уровня&lt;br&gt;*Смена названия &lt;br&gt;и описания" style="shape=parallelogram;perimeter=parallelogramPerimeter;whiteSpace=wrap;html=1;strokeColor=#000000;strokeWidth=1;fillColor=#ffffff;" vertex="1" parent="1">
          <mxGeometry x="426.5" y="630" width="187" height="60" as="geometry"/>
        </mxCell>
        <mxCell id="lbQ0SlpiaXaBPCAGhR3_-99" value="Пауза (мини-меню)" style="rounded=0;whiteSpace=wrap;html=1;strokeColor=#000000;strokeWidth=1;fillColor=#ffffff;" vertex="1" parent="1">
          <mxGeometry x="-656.5" y="1313.5" width="120" height="60" as="geometry"/>
        </mxCell>
        <mxCell id="lbQ0SlpiaXaBPCAGhR3_-104" style="rounded=0;orthogonalLoop=1;jettySize=auto;html=0;entryX=0.5;entryY=0;entryDx=0;entryDy=0;startArrow=none;startFill=0;endArrow=classic;endFill=1;strokeColor=#000000;strokeWidth=1;" edge="1" parent="1" source="lbQ0SlpiaXaBPCAGhR3_-100" target="lbQ0SlpiaXaBPCAGhR3_-103">
          <mxGeometry relative="1" as="geometry"/>
        </mxCell>
        <mxCell id="lbQ0SlpiaXaBPCAGhR3_-106" style="edgeStyle=none;rounded=0;orthogonalLoop=1;jettySize=auto;html=0;entryX=0.5;entryY=0;entryDx=0;entryDy=0;startArrow=none;startFill=0;endArrow=classic;endFill=1;strokeColor=#000000;strokeWidth=1;" edge="1" parent="1" source="lbQ0SlpiaXaBPCAGhR3_-100" target="lbQ0SlpiaXaBPCAGhR3_-105">
          <mxGeometry relative="1" as="geometry"/>
        </mxCell>
        <mxCell id="lbQ0SlpiaXaBPCAGhR3_-107" style="edgeStyle=none;rounded=0;orthogonalLoop=1;jettySize=auto;html=0;startArrow=none;startFill=0;endArrow=classic;endFill=1;strokeColor=#000000;strokeWidth=1;entryX=0.5;entryY=0;entryDx=0;entryDy=0;" edge="1" parent="1" source="lbQ0SlpiaXaBPCAGhR3_-100" target="lbQ0SlpiaXaBPCAGhR3_-108">
          <mxGeometry relative="1" as="geometry">
            <mxPoint x="-155.5" y="1581.5" as="targetPoint"/>
          </mxGeometry>
        </mxCell>
        <mxCell id="lbQ0SlpiaXaBPCAGhR3_-100" value="Купить помощника" style="rounded=0;whiteSpace=wrap;html=1;strokeColor=#000000;strokeWidth=1;fillColor=#ffffff;" vertex="1" parent="1">
          <mxGeometry x="-264" y="1463.5" width="120" height="60" as="geometry"/>
        </mxCell>
        <mxCell id="lbQ0SlpiaXaBPCAGhR3_-133" style="edgeStyle=none;rounded=0;orthogonalLoop=1;jettySize=auto;html=0;entryX=0.5;entryY=0;entryDx=0;entryDy=0;startArrow=none;startFill=0;endArrow=classic;endFill=1;strokeColor=#000000;strokeWidth=1;" edge="1" parent="1" source="lbQ0SlpiaXaBPCAGhR3_-101" target="lbQ0SlpiaXaBPCAGhR3_-128">
          <mxGeometry relative="1" as="geometry"/>
        </mxCell>
        <mxCell id="lbQ0SlpiaXaBPCAGhR3_-134" style="edgeStyle=none;rounded=0;orthogonalLoop=1;jettySize=auto;html=0;entryX=0.5;entryY=0;entryDx=0;entryDy=0;startArrow=none;startFill=0;endArrow=classic;endFill=1;strokeColor=#000000;strokeWidth=1;" edge="1" parent="1" source="lbQ0SlpiaXaBPCAGhR3_-101" target="lbQ0SlpiaXaBPCAGhR3_-127">
          <mxGeometry relative="1" as="geometry"/>
        </mxCell>
        <mxCell id="lbQ0SlpiaXaBPCAGhR3_-101" value="Купить камень усиления" style="rounded=0;whiteSpace=wrap;html=1;strokeColor=#000000;strokeWidth=1;fillColor=#ffffff;" vertex="1" parent="1">
          <mxGeometry x="-590" y="1463.5" width="120" height="60" as="geometry"/>
        </mxCell>
        <mxCell id="lbQ0SlpiaXaBPCAGhR3_-126" style="edgeStyle=none;rounded=0;orthogonalLoop=1;jettySize=auto;html=0;entryX=0.5;entryY=0;entryDx=0;entryDy=0;startArrow=none;startFill=0;endArrow=classic;endFill=1;strokeColor=#000000;strokeWidth=1;" edge="1" parent="1" source="lbQ0SlpiaXaBPCAGhR3_-102" target="lbQ0SlpiaXaBPCAGhR3_-125">
          <mxGeometry relative="1" as="geometry"/>
        </mxCell>
        <mxCell id="lbQ0SlpiaXaBPCAGhR3_-102" value="Посмотреть скиллы персонажа" style="rounded=0;whiteSpace=wrap;html=1;strokeColor=#000000;strokeWidth=1;fillColor=#ffffff;" vertex="1" parent="1">
          <mxGeometry x="-885.5" y="1481.5" width="120" height="60" as="geometry"/>
        </mxCell>
        <mxCell id="lbQ0SlpiaXaBPCAGhR3_-103" value="Выбрать место установки помощника" style="rounded=0;whiteSpace=wrap;html=1;strokeColor=#000000;strokeWidth=1;fillColor=#ffffff;" vertex="1" parent="1">
          <mxGeometry x="-395" y="1593.5" width="120" height="60" as="geometry"/>
        </mxCell>
        <mxCell id="lbQ0SlpiaXaBPCAGhR3_-105" value="Продать помощника за 50% цены покупки" style="rounded=0;whiteSpace=wrap;html=1;strokeColor=#000000;strokeWidth=1;fillColor=#ffffff;" vertex="1" parent="1">
          <mxGeometry x="-264" y="1593.5" width="120" height="60" as="geometry"/>
        </mxCell>
        <mxCell id="lbQ0SlpiaXaBPCAGhR3_-108" value="Улучшить уже купленного помощника (максимум 3 раза = 3 уровня)" style="rounded=0;whiteSpace=wrap;html=1;strokeColor=#000000;strokeWidth=1;fillColor=#ffffff;" vertex="1" parent="1">
          <mxGeometry x="-133" y="1593.5" width="133" height="60" as="geometry"/>
        </mxCell>
        <mxCell id="lbQ0SlpiaXaBPCAGhR3_-114" style="edgeStyle=none;rounded=0;orthogonalLoop=1;jettySize=auto;html=0;entryX=0.5;entryY=0;entryDx=0;entryDy=0;startArrow=none;startFill=0;endArrow=classic;endFill=1;strokeColor=#000000;strokeWidth=1;" edge="1" parent="1" source="lbQ0SlpiaXaBPCAGhR3_-113" target="lbQ0SlpiaXaBPCAGhR3_-100">
          <mxGeometry relative="1" as="geometry"/>
        </mxCell>
        <mxCell id="lbQ0SlpiaXaBPCAGhR3_-115" style="edgeStyle=none;rounded=0;orthogonalLoop=1;jettySize=auto;html=0;entryX=0.5;entryY=0;entryDx=0;entryDy=0;startArrow=none;startFill=0;endArrow=classic;endFill=1;strokeColor=#000000;strokeWidth=1;" edge="1" parent="1" source="lbQ0SlpiaXaBPCAGhR3_-113" target="lbQ0SlpiaXaBPCAGhR3_-101">
          <mxGeometry relative="1" as="geometry"/>
        </mxCell>
        <mxCell id="lbQ0SlpiaXaBPCAGhR3_-113" value="Выбрать вкладку &quot;Магазин&quot;" style="rounded=0;whiteSpace=wrap;html=1;strokeColor=#000000;strokeWidth=1;fillColor=#ffffff;" vertex="1" parent="1">
          <mxGeometry x="-427" y="1313.5" width="120" height="60" as="geometry"/>
        </mxCell>
        <mxCell id="lbQ0SlpiaXaBPCAGhR3_-120" style="edgeStyle=none;rounded=0;orthogonalLoop=1;jettySize=auto;html=0;entryX=0.5;entryY=0;entryDx=0;entryDy=0;startArrow=none;startFill=0;endArrow=classic;endFill=1;strokeColor=#000000;strokeWidth=1;" edge="1" parent="1" source="lbQ0SlpiaXaBPCAGhR3_-116" target="lbQ0SlpiaXaBPCAGhR3_-121">
          <mxGeometry relative="1" as="geometry"/>
        </mxCell>
        <mxCell id="lbQ0SlpiaXaBPCAGhR3_-116" value="Выбрать вкладку &quot;Персонаж&quot;" style="rounded=0;whiteSpace=wrap;html=1;strokeColor=#000000;strokeWidth=1;fillColor=#ffffff;" vertex="1" parent="1">
          <mxGeometry x="-885.5" y="1313.5" width="120" height="60" as="geometry"/>
        </mxCell>
        <mxCell id="lbQ0SlpiaXaBPCAGhR3_-124" style="edgeStyle=none;rounded=0;orthogonalLoop=1;jettySize=auto;html=0;exitX=0.5;exitY=1;exitDx=0;exitDy=0;entryX=0.5;entryY=0;entryDx=0;entryDy=0;startArrow=none;startFill=0;endArrow=classic;endFill=1;strokeColor=#000000;strokeWidth=1;" edge="1" parent="1" source="lbQ0SlpiaXaBPCAGhR3_-121" target="lbQ0SlpiaXaBPCAGhR3_-102">
          <mxGeometry relative="1" as="geometry"/>
        </mxCell>
        <mxCell id="lbQ0SlpiaXaBPCAGhR3_-121" value="&lt;span style=&quot;white-space: normal&quot;&gt;выбрать помощника в игре&lt;br&gt;&amp;nbsp;(если помощник не выбран, то показывать персонажа)&lt;/span&gt;" style="shape=parallelogram;perimeter=parallelogramPerimeter;whiteSpace=wrap;html=1;strokeColor=#000000;strokeWidth=1;fillColor=#ffffff;" vertex="1" parent="1">
          <mxGeometry x="-945.5" y="1400" width="240" height="60" as="geometry"/>
        </mxCell>
        <mxCell id="lbQ0SlpiaXaBPCAGhR3_-125" value="Отображать информацию по&lt;br&gt;отдельно выбранному скиллу" style="shape=parallelogram;perimeter=parallelogramPerimeter;whiteSpace=wrap;html=1;strokeColor=#000000;strokeWidth=1;fillColor=#ffffff;" vertex="1" parent="1">
          <mxGeometry x="-945.5" y="1571.5" width="240" height="60" as="geometry"/>
        </mxCell>
        <mxCell id="lbQ0SlpiaXaBPCAGhR3_-127" value="Выбрать персонажа или помощника для установки камня" style="rounded=0;whiteSpace=wrap;html=1;strokeColor=#000000;strokeWidth=1;fillColor=#ffffff;" vertex="1" parent="1">
          <mxGeometry x="-655" y="1593.5" width="120" height="60" as="geometry"/>
        </mxCell>
        <mxCell id="lbQ0SlpiaXaBPCAGhR3_-128" value="Продать камень за 50% цены покупки" style="rounded=0;whiteSpace=wrap;html=1;strokeColor=#000000;strokeWidth=1;fillColor=#ffffff;" vertex="1" parent="1">
          <mxGeometry x="-524" y="1593.5" width="120" height="60" as="geometry"/>
        </mxCell>
        <mxCell id="lbQ0SlpiaXaBPCAGhR3_-136" style="edgeStyle=none;rounded=0;orthogonalLoop=1;jettySize=auto;html=0;entryX=0.5;entryY=0;entryDx=0;entryDy=0;startArrow=none;startFill=0;endArrow=classic;endFill=1;strokeColor=#000000;strokeWidth=1;" edge="1" parent="1" source="lbQ0SlpiaXaBPCAGhR3_-135" target="lbQ0SlpiaXaBPCAGhR3_-99">
          <mxGeometry relative="1" as="geometry"/>
        </mxCell>
        <mxCell id="lbQ0SlpiaXaBPCAGhR3_-137" style="edgeStyle=none;rounded=0;orthogonalLoop=1;jettySize=auto;html=0;entryX=0.5;entryY=0;entryDx=0;entryDy=0;startArrow=none;startFill=0;endArrow=classic;endFill=1;strokeColor=#000000;strokeWidth=1;" edge="1" parent="1" source="lbQ0SlpiaXaBPCAGhR3_-135" target="lbQ0SlpiaXaBPCAGhR3_-113">
          <mxGeometry relative="1" as="geometry"/>
        </mxCell>
        <mxCell id="lbQ0SlpiaXaBPCAGhR3_-138" style="edgeStyle=none;rounded=0;orthogonalLoop=1;jettySize=auto;html=0;entryX=0.5;entryY=0;entryDx=0;entryDy=0;startArrow=none;startFill=0;endArrow=classic;endFill=1;strokeColor=#000000;strokeWidth=1;" edge="1" parent="1" source="lbQ0SlpiaXaBPCAGhR3_-135" target="lbQ0SlpiaXaBPCAGhR3_-116">
          <mxGeometry relative="1" as="geometry"/>
        </mxCell>
        <mxCell id="lbQ0SlpiaXaBPCAGhR3_-135" value="Выбираешь что-то в&lt;br&gt;доступном интерфейсе&lt;br&gt;во время игры" style="shape=parallelogram;perimeter=parallelogramPerimeter;whiteSpace=wrap;html=1;strokeColor=#000000;strokeWidth=1;fillColor=#ffffff;" vertex="1" parent="1">
          <mxGeometry x="-656.5" y="1150" width="211" height="60" as="geometry"/>
        </mxCell>
      </root>
    </mxGraphModel>
  </diagram>
</mxfile>
